<?xml version="1.0" encoding="UTF-8" standalone="no"?>
<svg
   width="750.38782mm"
   height="162.40028mm"
   viewBox="0 0 750.38778 162.40028"
   version="1.1"
   id="svg886"
   inkscape:version="1.1.2 (0a00cf5339, 2022-02-04)"
   sodipodi:docname="quaterion_logo_with_path.svg"
   inkscape:export-filename="/home/generall/projects/vector_search/landing_page/qdrant-landing/themes/qdrant/static/images/logo_v3_small.png"
   inkscape:export-xdpi="9.166667"
   inkscape:export-ydpi="9.166667"
   xmlns:inkscape="http://www.inkscape.org/namespaces/inkscape"
   xmlns:sodipodi="http://sodipodi.sourceforge.net/DTD/sodipodi-0.dtd"
   xmlns="http://www.w3.org/2000/svg"
   xmlns:svg="http://www.w3.org/2000/svg"
   xmlns:rdf="http://www.w3.org/1999/02/22-rdf-syntax-ns#"
   xmlns:cc="http://creativecommons.org/ns#"
   xmlns:dc="http://purl.org/dc/elements/1.1/">
  <defs
     id="defs880" />
  <sodipodi:namedview
     id="base"
     pagecolor="#ffffff"
     bordercolor="#666666"
     borderopacity="1.0"
     inkscape:pageopacity="0.0"
     inkscape:pageshadow="2"
     inkscape:zoom="0.22401762"
     inkscape:cx="1964.1312"
     inkscape:cy="69.190986"
     inkscape:document-units="mm"
     inkscape:current-layer="layer1"
     inkscape:document-rotation="0"
     showgrid="false"
     inkscape:pagecheckerboard="true"
     fit-margin-left="5"
     fit-margin-top="5"
     fit-margin-right="5"
     fit-margin-bottom="5"
     inkscape:window-width="2560"
     inkscape:window-height="1048"
     inkscape:window-x="0"
     inkscape:window-y="32"
     inkscape:window-maximized="1" />
  <metadata
     id="metadata883">
    <rdf:RDF>
      <cc:Work
         rdf:about="">
        <dc:format>image/svg+xml</dc:format>
        <dc:type
           rdf:resource="http://purl.org/dc/dcmitype/StillImage" />
      </cc:Work>
    </rdf:RDF>
  </metadata>
  <g
     inkscape:label="Layer 1"
     inkscape:groupmode="layer"
     id="layer1"
     transform="translate(-25.340873,-22.63771)">
    <path
       id="path14-3"
       style="fill:#201d1d;fill-opacity:1;fill-rule:evenodd;stroke:none;stroke-width:0.0352777"
       d="M 96.331156,27.637989 63.331622,46.687988 30.340873,65.737987 V 103.838 141.93799 l 32.990749,19.05 32.999534,19.05 21.110344,-12.18065 22.43997,12.18065 22.43998,-12.95011 V 65.737987 L 129.32191,46.687988 Z" />
    <path
       id="path14"
       style="fill:#201d1d;fill-opacity:1;fill-rule:evenodd;stroke:none;stroke-width:0.0352778"
       d="M 139.88134,128.98759 V 78.697704 L 162.32153,65.737708 V 167.08758 l -22.44019,12.95012 v -25.90976 -25.14035" />
    <path
       id="path16"
       style="fill:#65676d;fill-opacity:1;fill-rule:evenodd;stroke:none;stroke-width:0.0352778"
       d="M 162.32153,65.737708 139.88134,78.697704 118.10154,66.127527 96.331276,53.558056 74.551483,66.127527 52.781214,78.697704 30.341021,65.737708 63.331386,46.687709 96.331276,27.63771 129.32164,46.687709 162.32153,65.737708" />
    <path
       id="path18"
       style="fill:#a4a7a8;fill-opacity:1;fill-rule:evenodd;stroke:none;stroke-width:0.0352778"
       d="m 30.341021,65.737708 22.440193,12.959996 v 50.289886 l 21.770269,12.57017 21.779793,12.57018 v 25.90976 l -32.99989,-19.05 -32.990365,-19.05 V 103.83771 65.737708" />
    <path
       id="path20"
       style="fill:#201d1d;fill-opacity:1;fill-rule:evenodd;stroke:none;stroke-width:0.0352778"
       d="M 117.4415,141.9377 96.331276,154.12794 V 180.0377 L 117.4415,167.85734 V 141.9377" />
    <path
       id="path22"
       style="fill:#65676d;fill-opacity:1;fill-rule:evenodd;stroke:none;stroke-width:0.0352778"
       d="M 96.331276,103.83771 75.221055,91.658054 96.331276,79.467818 117.4415,91.658054 96.331276,103.83771" />
    <path
       id="path24"
       style="fill:#a4a7a8;fill-opacity:1;fill-rule:evenodd;stroke:none;stroke-width:0.0352778"
       d="m 75.221055,91.658054 21.110221,12.179656 v 24.37976 L 75.221055,116.02794 V 91.658054" />
    <path
       id="path26"
       style="fill:#201d1d;fill-opacity:1;fill-rule:evenodd;stroke:none;stroke-width:0.0352778"
       d="M 96.331276,103.83771 117.4415,91.658054 v 24.369886 l -21.110224,12.18953 v -24.37976" />
    <path
       id="path28"
       style="fill:#3c6c90;fill-opacity:1;fill-rule:evenodd;stroke:none;stroke-width:0.0352778"
       d="m 117.4415,167.85734 22.43984,12.18036 V 78.697704 L 118.10154,66.127527 96.331276,53.558056 74.551483,66.127527 52.781214,78.697704 v 25.140006 25.14988 l 21.770269,12.57017 21.779793,12.57018 21.110224,-12.19024 z m 0,-51.8294 -21.110224,12.18953 -21.110221,-12.18953 V 91.658054 L 96.331276,79.467818 117.4415,91.658054 v 24.369886" />
    <g
       aria-label="uaterion"
       id="text1747"
       style="font-size:127px;line-height:1.25;font-family:'Noto Sans Caucasian Albanian';-inkscape-font-specification:'Noto Sans Caucasian Albanian';fill:#3c6c90;stroke-width:0.264583">
      <path
         d="M 183.78778,126.45129 V 84.035278 H 206.112 v 6.945313 q 0,5.643066 -0.062,14.200679 -0.062,8.49561 -0.062,11.34815 0,8.37158 0.43408,12.09228 0.43408,3.6587 1.48828,5.33301 1.36426,2.17041 3.53467,3.34863 2.23242,1.17823 5.08496,1.17823 6.94531,0 10.91406,-5.33301 3.96875,-5.33301 3.96875,-14.8208 V 84.035278 h 22.2002 V 153.4884 h -22.2002 v -10.0459 q -5.02295,6.07715 -10.66601,8.9917 -5.58106,2.85254 -12.34034,2.85254 -12.03027,0 -18.35547,-7.37939 -6.26318,-7.3794 -6.26318,-21.45606 z"
         style="font-weight:bold;font-family:sans-serif;-inkscape-font-specification:'sans-serif Bold'"
         id="path845" />
      <path
         d="m 306.07489,122.2345 q -6.94531,0 -10.47998,2.35644 -3.47266,2.35645 -3.47266,6.94531 0,4.2168 2.79053,6.63526 2.85254,2.35644 7.87549,2.35644 6.26318,0 10.54199,-4.46484 4.27881,-4.52686 4.27881,-11.28613 v -2.54248 z m 33.92041,-8.37158 v 39.62548 h -22.38623 v -10.29394 q -4.46484,6.32519 -10.0459,9.23974 -5.58105,2.85254 -13.58057,2.85254 -10.79003,0 -17.54931,-6.26318 -6.69727,-6.3252 -6.69727,-16.37109 0,-12.21631 8.37158,-17.92139 8.4336,-5.70508 26.417,-5.70508 h 13.08447 v -1.73633 q 0,-5.27099 -4.15479,-7.68945 -4.15478,-2.480469 -12.96044,-2.480469 -7.13135,0 -13.27051,1.42627 -6.13916,1.426269 -11.41016,4.278809 v -16.9292 q 7.13135,-1.736328 14.32471,-2.604492 7.19336,-0.930176 14.38672,-0.930176 18.78955,0 27.09912,7.441406 8.37158,7.379395 8.37158,24.060552 z"
         style="font-weight:bold;font-family:sans-serif;-inkscape-font-specification:'sans-serif Bold'"
         id="path847" />
      <path
         d="m 384.89178,64.315552 v 19.719726 h 22.88233 v 15.875 h -22.88233 v 29.455562 q 0,4.83692 1.92237,6.57325 1.92236,1.67431 7.62744,1.67431 h 11.41016 v 15.875 h -19.0376 q -13.14649,0 -18.66553,-5.45703 -5.45703,-5.51904 -5.45703,-18.66553 V 99.910278 H 351.6535 v -15.875 h 11.03809 V 64.315552 Z"
         style="font-weight:bold;font-family:sans-serif;-inkscape-font-specification:'sans-serif Bold'"
         id="path849" />
      <path
         d="m 490.68378,118.57581 v 6.32519 h -51.90381 q 0.80615,7.81348 5.64306,11.72022 4.83692,3.90673 13.51856,3.90673 7.00732,0 14.32471,-2.04638 7.37939,-2.1084 15.13086,-6.3252 v 17.11524 q -7.87549,2.97656 -15.75098,4.46484 -7.87549,1.55029 -15.75098,1.55029 -18.85156,0 -29.33154,-9.5498 -10.41797,-9.61182 -10.41797,-26.91309 0,-16.99121 10.23193,-26.727048 10.29395,-9.73584 28.27735,-9.73584 16.37109,0 26.16894,9.859863 9.85987,9.859865 9.85987,26.354985 z m -22.82032,-7.3794 q 0,-6.32519 -3.7207,-10.16992 -3.65869,-3.906739 -9.61182,-3.906739 -6.44921,0 -10.47998,3.658689 -4.03076,3.59668 -5.02294,10.41797 z"
         style="font-weight:bold;font-family:sans-serif;-inkscape-font-specification:'sans-serif Bold'"
         id="path851" />
      <path
         d="m 559.0827,102.94885 q -2.91455,-1.36426 -5.8291,-1.98437 -2.85254,-0.68213 -5.76709,-0.68213 -8.55762,0 -13.20849,5.51904 -4.58887,5.45703 -4.58887,15.68897 v 31.99804 h -22.2002 V 84.035278 h 22.2002 v 11.410157 q 4.27881,-6.821289 9.79785,-9.921875 5.58105,-3.162598 13.33252,-3.162598 1.11621,0 2.41846,0.124023 1.30224,0.06201 3.78271,0.372071 z"
         style="font-weight:bold;font-family:sans-serif;-inkscape-font-specification:'sans-serif Bold'"
         id="path853" />
      <path
         d="m 570.12079,84.035278 h 22.20019 V 153.4884 h -22.20019 z m 0,-27.037109 h 22.20019 v 18.107422 h -22.20019 z"
         style="font-weight:bold;font-family:sans-serif;-inkscape-font-specification:'sans-serif Bold'"
         id="path855" />
      <path
         d="m 646.70526,98.235962 q -7.37939,0 -11.28613,5.333008 -3.84473,5.271 -3.84473,15.25488 0,9.98389 3.84473,15.3169 3.90674,5.27099 11.28613,5.27099 7.25537,0 11.1001,-5.27099 3.84473,-5.33301 3.84473,-15.3169 0,-9.98388 -3.84473,-15.25488 -3.84473,-5.333008 -11.1001,-5.333008 z m 0,-15.875 q 17.92139,0 27.96729,9.673828 10.10791,9.67383 10.10791,26.78906 0,17.11524 -10.10791,26.78907 -10.0459,9.67382 -27.96729,9.67382 -17.9834,0 -28.15332,-9.67382 -10.10791,-9.67383 -10.10791,-26.78907 0,-17.11523 10.10791,-26.78906 10.16992,-9.673828 28.15332,-9.673828 z"
         style="font-weight:bold;font-family:sans-serif;-inkscape-font-specification:'sans-serif Bold'"
         id="path857" />
      <path
         d="m 770.7287,111.19641 v 42.29199 h -22.32422 v -6.8833 -25.48681 q 0,-8.9917 -0.43408,-12.40235 -0.37207,-3.41064 -1.36426,-5.02295 -1.30225,-2.17041 -3.53467,-3.34863 -2.23242,-1.240234 -5.08496,-1.240234 -6.94531,0 -10.91406,5.395024 -3.96875,5.333 -3.96875,14.8208 V 153.4884 H 700.9035 V 84.035278 h 22.2002 V 94.2052 q 5.02295,-6.077148 10.66601,-8.929687 5.64307,-2.914551 12.46436,-2.914551 12.03027,0 18.23145,7.379394 6.26318,7.379395 6.26318,21.456054 z"
         style="font-weight:bold;font-family:sans-serif;-inkscape-font-specification:'sans-serif Bold'"
         id="path859" />
    </g>
  </g>
</svg>
